{"title":"Violence Of Action 2012 DVDRip x264 AAC-UNiQUE","uid":7788229,"size":1533029491,"categoryP":"video","categoryS":"movies","magnet":"?xt=urn:btih:6b937bb0d4451dbba6a9e7cf82bb38676e425cf8&amp;dn=Violence+Of+Action+2012+DVDRip+x264+AAC-UNiQUE&amp;tr=udp%3A%2F%2Ftracker.openbittorrent.com%3A80&amp;tr=udp%3A%2F%2Fopen.demonii.com%3A1337&amp;tr=udp%3A%2F%2Ftracker.coppersurfer.tk%3A6969&amp;tr=udp%3A%2F%2Fexodus.desync.com%3A6969","seeders":1,"leechers":0,"uploader":"HeroMaster","files":-1,"time":1351954193,"description":"ooooo ooo ooooo ooo o8o .oooooo. ooooo ooo oooooooooooo\n`888' `8' `888b. `8' `&quot;' d8P' `Y8b `888' `8' `888' `8\n888 8 8 `88b. 8 oooo 888 888 888 8 888\n888 8 8 `88b. 8 `888 888 888 888 8 888oooo8\n888 8 8 `88b.8 888 888 888 888 8 888 &quot;\n`88. .8' 8 `888 888 `88b d88b `88. .8' 888 o\n`YbodP' o8o `8 o888o `Y8bood8P'Ybd' `YbodP' o888ooooood8\n\n\n.........why be the same as everyone else when YOU can be UNiQUE.........\n\nGeneral\nComplete name : Violence Of Action 2012 DVDRip x264 AAC-UNiQUE.mp4\nFormat : MPEG-4\nFormat profile : Base Media\nCodec ID : isom\nFile size : 1.39 GiB\nDuration : 1h 30mn\nOverall bit rate mode : Variable\nOverall bit rate : 2 206 Kbps\nEncoded date : UTC 2012-11-03 12:49:31\n\nVideo\nID : 1\nFormat : AVC\nFormat/Info : Advanced Video Codec\nFormat profile : &lt;a class=&quot;__cf_email__&quot; href=&quot;/cdn-cgi/l/email-protection&quot; data-cfemail=&quot;b8f0d1dfd0f8f48c9689&quot;&gt;[email&amp;#160;protected]&lt;/a&gt;&lt;script cf-hash='f9e31' type=&quot;text/javascript&quot;&gt;\n/* &lt;![CDATA[ */!function(){try{var t=&quot;currentScript&quot;in document?document.currentScript:function(){for(var t=document.getElementsByTagName(&quot;script&quot;),e=t.length;e--;)if(t[e].getAttribute(&quot;cf-hash&quot;))return t[e]}();if(t&amp;&amp;t.previousSibling){var e,r,n,i,c=t.previousSibling,a=c.getAttribute(&quot;data-cfemail&quot;);if(a){for(e=&quot;&quot;,r=parseInt(a.substr(0,2),16),n=2;a.length-n;n+=2)i=parseInt(a.substr(n,2),16)^r,e+=String.fromCharCode(i);e=document.createTextNode(e),c.parentNode.replaceChild(e,c)}}}catch(u){}}();/* ]]&gt; */&lt;/script&gt;\nFormat settings, CABAC : Yes\nFormat settings, ReFrames : 3 frames\nCodec ID : avc1\nCodec ID/Info : Advanced Video Coding\nDuration : 1h 30mn\nBit rate mode : Variable\nBit rate : 1 862 Kbps\nMaximum bit rate : 40.0 Mbps\nWidth : 720 pixels\nHeight : 400 pixels\nDisplay aspect ratio : 16:9\nFrame rate mode : Constant\nFrame rate : 23.976 fps\nColor space : YUV\nChroma subsampling : 4:2:0\nBit depth : 8 bits\nScan type : Progressive\nBits/(Pixel*Frame) : 0.270\nStream size : 1.18 GiB (84%)\nWriting library : x264 core 128 r2216 198a7ea\n\nAudio\nID : 2\nFormat : AAC\nFormat/Info : Advanced Audio Codec\nFormat profile : LC\nCodec ID : 40\nDuration : 1h 30mn\nBit rate mode : Variable\nBit rate : 341 Kbps\nMaximum bit rate : 407 Kbps\nChannel(s) : 6 channels\nChannel positions : Front: L C R, Side: L R, LFE\nSampling rate : 48.0 KHz\nCompression mode : Lossy\nStream size : 221 MiB (15%)\nLanguage : English\nEncoded date : UTC 2012-11-03 12:50:05\n\nsubtitles : Hardcoded for foreign parts (already on the vobs)\n\nSource : DVD5 NTSC MASTER - Thanks!\n\nMDB: http://www.imdb.com/title/tt2296471/\n\nStoryline\nElijah Kane falls back onto his special forces past, re-emerging from the ashes \nof his destroyed SIU to once again work for the government.\n\n\nPoster:\n\n &lt;a href=&quot;\nhttp://imgon.net/di-U90G.jpg&quot; rel=&quot;nofollow&quot; target=&quot;_NEW&quot;&gt;\nhttp://imgon.net/di-U90G.jpg&lt;/a&gt;\n\n\nScreenshots:\n\n &lt;a href=&quot;\nhttp://imgon.net/di-KOC5.png&quot; rel=&quot;nofollow&quot; target=&quot;_NEW&quot;&gt;\nhttp://imgon.net/di-KOC5.png&lt;/a&gt;\n\n &lt;a href=&quot;\nhttp://imgon.net/di-3MJS.png&quot; rel=&quot;nofollow&quot; target=&quot;_NEW&quot;&gt;\nhttp://imgon.net/di-3MJS.png&lt;/a&gt;\n\n &lt;a href=&quot;\nhttp://imgon.net/di-AQLB.png&quot; rel=&quot;nofollow&quot; target=&quot;_NEW&quot;&gt;\nhttp://imgon.net/di-AQLB.png&lt;/a&gt;\n\n\nENJOY!","torrent":{"xt":"urn:btih:6b937bb0d4451dbba6a9e7cf82bb38676e425cf8","amp;dn":"Violence+Of+Action+2012+DVDRip+x264+AAC-UNiQUE","amp;tr":["udp%3A%2F%2Ftracker.openbittorrent.com%3A80","udp%3A%2F%2Fopen.demonii.com%3A1337","udp%3A%2F%2Ftracker.coppersurfer.tk%3A6969","udp%3A%2F%2Fexodus.desync.com%3A6969"],"infoHash":"6b937bb0d4451dbba6a9e7cf82bb38676e425cf8","infoHashBuffer":{"type":"Buffer","data":[107,147,123,176,212,69,29,187,166,169,231,207,130,187,56,103,110,66,92,248]},"announce":[],"urlList":[]}}